<svg xmlns="http://www.w3.org/2000/svg" xmlns:xlink="http://www.w3.org/1999/xlink" width="500" zoomAndPan="magnify" viewBox="0 0 375 374.999991" height="500" preserveAspectRatio="xMidYMid meet" version="1.0"><path fill="#ffffff" d="M 192.800781 69.472656 C 192.347656 70.246094 190.179688 74.585938 187.976562 79.125 C 183.730469 87.875 182.132812 90.53125 171.59375 106.375 C 167.933594 111.875 163.402344 119.21875 161.523438 122.695312 L 158.105469 129.019531 L 156.40625 127.695312 C 146.1875 119.734375 140.898438 116.839844 131.613281 114.148438 C 122.449219 111.488281 118.683594 111 107.371094 111 C 97.664062 111 79.550781 112.667969 77.855469 113.714844 C 76.597656 114.492188 77.40625 115.785156 82.882812 121.742188 C 88.621094 127.988281 89.40625 129.136719 94.230469 138.375 C 97.171875 144.007812 108.75 169.503906 108.75 170.347656 C 108.75 170.628906 107.207031 171.761719 105.324219 172.867188 C 100.9375 175.4375 92.328125 183.554688 88.117188 189.085938 C 86.316406 191.453125 82.714844 197.289062 80.109375 202.050781 L 75.375 210.710938 L 46.6875 210.730469 C 18.507812 210.75 18 210.777344 18 212.25 C 18 213.746094 18.5 213.75 187.929688 213.75 C 349.363281 213.75 357.847656 213.683594 357.609375 212.4375 C 357.371094 211.21875 355.339844 211.109375 329.492188 210.929688 L 301.625 210.730469 L 298.09375 204.179688 C 289.851562 188.894531 283.644531 181.304688 273.609375 174.246094 L 267.847656 170.191406 L 269.660156 166.285156 C 270.65625 164.132812 272.683594 158.492188 274.167969 153.75 C 282.375 127.503906 286.5625 117.863281 293.214844 109.875 C 295.277344 107.398438 296.972656 105.070312 296.980469 104.695312 C 296.992188 104.300781 293.160156 104.226562 287.8125 104.515625 C 261.976562 105.921875 240.832031 114.542969 229.6875 128.222656 C 227.828125 130.507812 226.152344 132.375 225.96875 132.375 C 225.78125 132.375 224.519531 129.507812 223.164062 126 C 219.5625 116.6875 211.472656 100.890625 206.195312 92.867188 C 200.8125 84.6875 197.058594 77.484375 195.710938 72.75 C 194.488281 68.464844 193.828125 67.722656 192.800781 69.472656 M 188.027344 84.574219 C 187.339844 86.117188 183.925781 91.761719 180.433594 97.125 C 165.292969 120.402344 163.429688 123.464844 161.457031 128.339844 C 160.3125 131.167969 159.207031 133.480469 159 133.480469 C 158.792969 133.480469 156.429688 131.605469 153.75 129.316406 C 147.617188 124.078125 136.078125 118.332031 126.75 115.871094 C 118.441406 113.675781 101.734375 112.710938 91.875 113.855469 L 85.875 114.550781 L 93.101562 114.648438 C 98.355469 114.722656 102.101562 115.261719 106.816406 116.628906 C 114.097656 118.738281 123.828125 122.992188 122.519531 123.492188 C 122.046875 123.675781 117.246094 122.464844 111.851562 120.808594 C 103.175781 118.144531 89.628906 115.621094 88.742188 116.507812 C 88.566406 116.683594 89.933594 117.5625 91.785156 118.457031 C 99.753906 122.3125 121.933594 138.9375 121.042969 140.382812 C 120.515625 141.234375 119.132812 140.34375 108.042969 132 C 103.257812 128.402344 97.324219 124.328125 94.859375 122.949219 L 90.375 120.4375 L 97.125 127.613281 C 103.6875 134.589844 110.730469 145.1875 110.085938 147.121094 C 109.914062 147.628906 107.800781 145.363281 105.382812 142.085938 C 100.617188 135.628906 93.15625 127.507812 89.738281 125.066406 C 87.742188 123.644531 87.789062 123.785156 90.421875 127.207031 C 93.035156 130.605469 96.941406 138.273438 108.664062 163.03125 C 114.914062 176.230469 119.984375 183.550781 128.777344 192.085938 C 135.171875 198.289062 137.300781 199.832031 144.042969 203.148438 C 155.476562 208.773438 159.386719 209.636719 173.0625 209.558594 C 179.351562 209.519531 184.5 209.773438 184.5 210.121094 C 184.5 211.257812 187.328125 210.777344 187.792969 209.5625 C 188.046875 208.910156 188.25 199.207031 188.253906 188 C 188.253906 176.792969 188.476562 163.320312 188.742188 158.0625 C 189.699219 139.300781 190.5 148.988281 190.5 179.347656 L 190.5 210.191406 L 193.582031 209.699219 C 196.265625 209.269531 201.367188 207.660156 205.726562 205.867188 C 206.882812 205.390625 207.007812 205.589844 206.582031 207.28125 C 205.96875 209.726562 206.121094 209.730469 215.292969 207.449219 C 228.703125 204.109375 238.601562 199.199219 248.238281 191.101562 C 260.746094 180.589844 266.675781 168.910156 277.871094 132.765625 C 278.570312 130.507812 280.722656 125.363281 282.648438 121.335938 L 286.160156 114.007812 L 281.804688 118.316406 C 279.410156 120.6875 275.917969 124.90625 274.046875 127.699219 C 272.171875 130.488281 270.332031 132.582031 269.953125 132.347656 C 268.777344 131.617188 274.21875 121.929688 278.390625 117.332031 L 282.375 112.9375 L 279.375 114.707031 C 273.890625 117.941406 265.8125 124.402344 261.867188 128.710938 C 259.722656 131.054688 257.777344 132.777344 257.539062 132.539062 C 256.5 131.5 258.527344 128.625 264.535156 122.613281 C 270.945312 116.207031 273.304688 114.605469 281.25 111.285156 C 287.167969 108.816406 283.480469 109.09375 275.761719 111.703125 C 267.632812 114.453125 261.386719 117.601562 254.632812 122.355469 C 249.226562 126.164062 247.210938 126.074219 250.925781 122.195312 C 253.886719 119.105469 263.871094 112.695312 269.019531 110.578125 C 274.84375 108.179688 271.710938 108.234375 264.027344 110.660156 C 249.566406 115.230469 242.476562 119.582031 231.953125 130.351562 C 227.097656 135.324219 224.160156 137.824219 223.949219 137.164062 C 223.769531 136.59375 222.886719 133.765625 221.992188 130.882812 C 219.742188 123.636719 214.003906 111.710938 207.6875 101.144531 C 204.761719 96.253906 202.246094 92.25 202.101562 92.25 C 201.71875 92.25 204.933594 99.40625 208.484375 106.464844 C 211.769531 113.003906 211.851562 113.25 210.757812 113.25 C 209.640625 113.25 200.542969 98.625 198.859375 94.125 L 198.019531 91.875 L 198.476562 94.5 C 198.730469 95.945312 200.269531 101.511719 201.898438 106.875 C 205.640625 119.191406 205.832031 120 204.957031 120 C 203.234375 120 196.675781 103.167969 194.703125 93.671875 L 193.703125 88.875 L 193.246094 96 C 192.992188 99.917969 192.574219 109.199219 192.320312 116.625 C 192.066406 124.050781 191.703125 130.285156 191.511719 130.476562 C 190.246094 131.777344 189.765625 126.289062 189.707031 109.875 C 189.652344 93.28125 189.527344 91.441406 188.636719 93.863281 C 186.710938 99.105469 176.457031 119.785156 175.488281 120.382812 C 173.804688 121.421875 175.234375 116.574219 179.355469 107.261719 C 185.199219 94.050781 189.925781 82.425781 189.582031 82.082031 C 189.414062 81.914062 188.714844 83.035156 188.027344 84.574219 M 142.6875 89.746094 C 141.226562 90.335938 141.578125 93.605469 143.195312 94.472656 C 145.027344 95.449219 146.808594 94.785156 147.410156 92.894531 C 148.238281 90.285156 145.640625 88.554688 142.6875 89.746094 M 232.058594 91.035156 C 231.101562 93.515625 232.058594 94.875 234.761719 94.875 C 237.164062 94.875 237.375 94.695312 237.375 92.625 C 237.375 90.632812 237.09375 90.347656 234.933594 90.140625 C 233.285156 89.980469 232.347656 90.273438 232.058594 91.035156 M 248.671875 157.75 C 247.265625 159.949219 244.339844 165.097656 242.167969 169.1875 C 239.996094 173.277344 236.734375 178.902344 234.917969 181.6875 C 231.777344 186.496094 222.753906 196.253906 216.484375 201.621094 C 214.894531 202.980469 213.773438 204.273438 213.992188 204.492188 C 214.738281 205.238281 221.59375 199.972656 227.042969 194.464844 C 233.480469 187.960938 238.054688 181.316406 244.5 169.125 C 247.113281 164.175781 250.039062 158.949219 251 157.511719 C 252.914062 154.65625 253.152344 153.75 251.992188 153.75 C 251.574219 153.75 250.078125 155.550781 248.671875 157.75 M 282.9375 162.496094 C 281.613281 163.03125 281.761719 166.996094 283.125 167.519531 C 285.789062 168.542969 288.269531 165.257812 286.46875 163.089844 C 285.550781 161.980469 284.609375 161.820312 282.9375 162.496094 M 135 164.230469 C 135 166.078125 145.167969 185.242188 148.632812 189.921875 C 154.527344 197.882812 162.683594 204.550781 168.1875 205.90625 C 171.042969 206.609375 170.871094 205.019531 167.917969 203.402344 C 156.488281 197.140625 149.632812 189.3125 140.542969 172.136719 C 136.589844 164.664062 135 162.398438 135 164.230469 M 84.121094 165.660156 C 82.472656 166.703125 83.367188 169.839844 85.398438 170.125 C 87.765625 170.460938 88.796875 169.285156 88.207031 166.929688 C 87.714844 164.96875 86.035156 164.445312 84.121094 165.660156 M 105.851562 174.761719 C 101.75 177.734375 94.117188 185.496094 91.597656 189.257812 C 87.8125 194.914062 84.273438 200.660156 81.484375 205.6875 L 78.675781 210.75 L 85.898438 210.75 L 87.164062 207.1875 C 90.878906 196.746094 102.234375 183.113281 111.660156 177.777344 C 112.777344 177.144531 112.773438 176.921875 111.621094 175.003906 C 110.933594 173.855469 110.066406 172.8125 109.695312 172.691406 C 109.324219 172.566406 107.597656 173.5 105.851562 174.761719 M 265.605469 174.9375 L 264.0625 177.375 L 266.75 178.753906 C 273.796875 182.371094 287.902344 198.65625 291.445312 207.269531 C 292.78125 210.515625 293.054688 210.746094 295.648438 210.746094 L 298.417969 210.75 L 295.773438 206.0625 C 288.488281 193.164062 285.644531 188.996094 280.175781 183.195312 C 275.144531 177.855469 268.796875 172.5 267.5 172.5 C 267.308594 172.5 266.453125 173.597656 265.605469 174.9375 M 297.472656 178.585938 C 296.152344 180.472656 296.582031 182.015625 298.605469 182.660156 C 300.1875 183.160156 302.25 181.882812 302.25 180.398438 C 302.25 179.480469 299.914062 177 299.046875 177 C 298.792969 177 298.085938 177.714844 297.472656 178.585938 M 109.5 181.773438 C 102.847656 186.671875 97.351562 193.5 92.933594 202.351562 L 88.742188 210.75 L 120.683594 210.730469 L 152.625 210.707031 L 146.441406 207.777344 C 134.472656 202.101562 122.402344 191.9375 116.382812 182.464844 C 115.277344 180.726562 114.039062 179.300781 113.625 179.296875 C 113.210938 179.289062 111.355469 180.40625 109.5 181.773438 M 260.628906 182.242188 C 257.550781 186.683594 247.863281 195.652344 241.789062 199.6875 C 236.292969 203.335938 228.484375 206.988281 221.25 209.296875 C 217.191406 210.589844 217.714844 210.613281 253.6875 210.683594 C 273.796875 210.71875 290.25 210.574219 290.25 210.363281 C 290.25 209.648438 285.492188 201.410156 282.492188 196.933594 C 278.578125 191.085938 271.257812 183.832031 266.707031 181.289062 C 264.703125 180.167969 262.980469 179.25 262.882812 179.25 C 262.785156 179.25 261.769531 180.597656 260.628906 182.242188 M 69.929688 183.121094 C 68.554688 184.496094 68.800781 186.589844 70.445312 187.472656 C 72.785156 188.722656 74.363281 187.644531 74.101562 184.964844 C 73.855469 182.40625 71.628906 181.421875 69.929688 183.121094 M 307.285156 196.964844 C 306.140625 198.109375 306.773438 200.90625 308.285156 201.386719 C 310.257812 202.011719 312.136719 200.457031 311.847656 198.441406 C 311.625 196.863281 308.421875 195.828125 307.285156 196.964844 M 61.472656 201.621094 C 59.15625 203.496094 59.941406 205.691406 62.808594 205.363281 C 65.164062 205.09375 66.023438 202.574219 64.257812 201.109375 C 63.421875 200.417969 62.824219 200.527344 61.472656 201.621094 M 190.25 235.25 C 189.363281 236.136719 189.71875 238.289062 190.917969 239.285156 C 191.890625 240.089844 192.339844 239.992188 193.644531 238.6875 C 195.550781 236.78125 194.972656 234.75 192.523438 234.75 C 191.546875 234.75 190.523438 234.976562 190.25 235.25 M 159.75 236.265625 C 158.792969 236.902344 158.878906 237.210938 160.359375 238.355469 L 162.089844 239.699219 L 160.515625 247.535156 C 157.917969 260.492188 157.03125 263.015625 154.878906 263.558594 C 151.246094 264.46875 153.035156 265.5 158.25 265.5 C 163.300781 265.5 165.1875 264.617188 161.945312 263.769531 C 160.542969 263.402344 160.445312 263.007812 160.929688 259.742188 C 161.222656 257.753906 162.183594 253.101562 163.058594 249.402344 L 164.652344 242.683594 L 169.523438 253.902344 C 173.445312 262.945312 174.703125 265.171875 176.003906 265.355469 C 177.941406 265.632812 177.78125 266.085938 180.804688 251.625 C 182.097656 245.4375 183.5 239.953125 183.921875 239.4375 C 184.339844 238.921875 185.316406 238.5 186.089844 238.5 C 188.617188 238.5 187.636719 236.34375 184.875 235.824219 C 179.921875 234.894531 174.113281 237.136719 178.5 238.28125 C 179.324219 238.5 180 239.300781 180 240.066406 C 180 242.042969 176.921875 256.019531 176.351562 256.640625 C 176.089844 256.925781 173.851562 252.472656 171.375 246.746094 C 166.816406 236.203125 166.269531 235.519531 162.375 235.523438 C 161.550781 235.523438 160.367188 235.859375 159.75 236.265625 M 208.5 243.84375 C 207.46875 244.253906 205.867188 245.304688 204.9375 246.175781 L 203.25 247.761719 L 203.25 245.753906 C 203.25 243.847656 203.066406 243.75 199.5 243.75 C 195.484375 243.75 194.828125 244.445312 197.277344 246.097656 L 198.808594 247.125 L 197.285156 254.625 C 196.449219 258.75 195.585938 262.882812 195.367188 263.8125 C 195.027344 265.265625 195.273438 265.5 197.160156 265.5 C 199.28125 265.5 199.390625 265.316406 200.625 259.6875 C 202.136719 252.808594 204.355469 248.492188 207.105469 247.070312 C 210.328125 245.40625 210.765625 246.835938 209.417969 254.640625 C 208.777344 258.363281 208.480469 262.320312 208.761719 263.441406 C 209.402344 265.988281 212.457031 266.941406 215.125 265.429688 C 217.328125 264.175781 217.066406 262.785156 214.6875 263.089844 C 213.234375 263.277344 213 262.960938 213 260.839844 C 213 259.484375 213.515625 255.917969 214.140625 252.914062 C 215.363281 247.0625 214.984375 245.214844 212.28125 243.765625 C 210.632812 242.882812 210.917969 242.878906 208.5 243.84375 M 226.628906 243.503906 C 224.019531 244.050781 219.207031 249.257812 218.304688 252.515625 C 216.609375 258.609375 217.746094 263.3125 221.359375 265.179688 C 228.867188 269.0625 237.75 261.734375 237.75 251.660156 C 237.75 245.765625 232.882812 242.195312 226.628906 243.503906 M 185.59375 244.550781 C 185.320312 244.992188 185.808594 245.535156 186.675781 245.761719 C 188.515625 246.246094 188.558594 246.980469 187.125 253.5 C 185.800781 259.519531 185.710938 264.164062 186.898438 265.351562 C 188.160156 266.609375 191.351562 266.472656 193.34375 265.074219 C 195.417969 263.621094 194.800781 262.332031 192.328125 262.953125 C 190.648438 263.375 190.5 263.199219 190.5 260.753906 C 190.5 258.5 191.632812 251.921875 193.136719 245.4375 C 193.503906 243.863281 193.28125 243.75 189.808594 243.75 C 187.761719 243.75 185.867188 244.109375 185.59375 244.550781 M 225.496094 248.242188 C 223.359375 250.785156 221.675781 257.574219 222.4375 260.601562 C 222.714844 261.710938 223.730469 262.976562 224.691406 263.417969 C 227.027344 264.480469 229.992188 262.554688 231.476562 259 C 233 255.347656 233.160156 247.625 231.722656 246.71875 C 229.683594 245.425781 227.394531 245.988281 225.496094 248.242188 M 113.0625 275.308594 C 111.492188 276.222656 111.347656 278.480469 112.78125 279.671875 C 115.035156 281.542969 118.121094 277.878906 116.21875 275.589844 C 115.164062 274.316406 114.820312 274.285156 113.0625 275.308594 M 255.742188 276.011719 C 254.652344 278.050781 255.285156 279.75 257.132812 279.75 C 259.238281 279.75 260.730469 277.679688 259.75 276.125 C 258.574219 274.253906 256.710938 274.203125 255.742188 276.011719 M 305 275.75 C 304.214844 276.535156 304.414062 278.613281 305.363281 279.566406 C 306.675781 280.875 309 279.296875 309 277.097656 C 309 275.660156 308.609375 275.25 307.25 275.25 C 306.289062 275.25 305.273438 275.476562 305 275.75 M 87.5625 277.1875 C 86.65625 278.09375 86.914062 279 88.082031 279 C 89.96875 279 89.980469 280.070312 88.1875 288.816406 C 85.464844 302.136719 85.027344 303.378906 82.691406 304.46875 C 80.753906 305.371094 80.71875 305.46875 82.125 306.039062 C 85.082031 307.234375 93.75 306.671875 93.75 305.28125 C 93.75 304.984375 92.878906 304.34375 91.816406 303.859375 C 90.136719 303.09375 89.949219 302.664062 90.375 300.550781 C 91.320312 295.839844 91.527344 295.5625 94.355469 295.121094 C 103.765625 293.65625 106.5 291.445312 106.5 285.308594 C 106.5 282.1875 106.109375 280.878906 104.691406 279.230469 C 102.972656 277.230469 102.515625 277.113281 95.503906 276.875 C 91.445312 276.734375 87.871094 276.875 87.5625 277.1875 M 231.75 277.523438 C 231.75 277.949219 232.257812 278.492188 232.875 278.726562 C 234.398438 279.3125 234.296875 282.171875 232.46875 290.445312 C 229.859375 302.230469 229.574219 303.007812 227.585938 303.765625 C 223.242188 305.417969 226.535156 306.972656 233.597656 306.605469 C 238.273438 306.363281 240.03125 304.914062 236.679688 304.070312 C 234.5 303.523438 234.359375 302.644531 235.5625 297.035156 L 236.375 293.25 L 241.5625 293.25 C 246.25 293.25 246.75 293.105469 246.75 291.75 C 246.75 290.402344 246.25 290.25 241.792969 290.25 C 237.859375 290.25 236.921875 290.035156 237.242188 289.199219 C 237.464844 288.625 238.054688 286.078125 238.550781 283.542969 L 239.457031 278.929688 L 243.667969 279.152344 C 247.695312 279.367188 247.90625 279.476562 248.59375 281.8125 C 248.988281 283.152344 249.566406 284.25 249.878906 284.25 C 250.679688 284.25 251.707031 282.054688 252.25 279.1875 L 252.710938 276.75 L 242.230469 276.75 C 235.53125 276.75 231.75 277.027344 231.75 277.523438 M 167.839844 280.929688 C 167.355469 281.992188 166.011719 283.351562 164.855469 283.949219 C 162.46875 285.183594 162.203125 286.117188 163.960938 287.101562 C 165.074219 287.726562 165.074219 288.203125 163.960938 293.101562 C 162.347656 300.1875 162.398438 303.949219 164.121094 305.507812 C 165.675781 306.914062 168.890625 307.128906 171.050781 305.972656 C 173.28125 304.777344 172.773438 303.75 169.957031 303.75 C 168.34375 303.75 167.246094 303.320312 166.960938 302.582031 C 166.714844 301.941406 167.1875 298.402344 168.007812 294.714844 C 168.828125 291.03125 169.5 287.84375 169.5 287.632812 C 169.5 287.421875 170.148438 287.25 170.9375 287.25 C 173.175781 287.25 174.75 286.441406 174.75 285.292969 C 174.75 284.628906 173.917969 284.25 172.464844 284.25 C 170.261719 284.25 170.199219 284.160156 170.675781 281.625 C 171.074219 279.496094 170.933594 279 169.941406 279 C 169.269531 279 168.320312 279.867188 167.839844 280.929688 M 93.492188 285.394531 C 91.820312 293.007812 91.753906 292.765625 95.324219 292.285156 C 99.574219 291.714844 102 289.277344 102 285.570312 C 102 281.140625 100.945312 279.75 97.589844 279.75 L 94.730469 279.75 Z M 126 284.335938 C 119.90625 286.789062 115.632812 296.207031 117.726562 302.554688 C 119.285156 307.277344 123.609375 308.171875 127.125 304.5 L 129.285156 302.246094 L 130.273438 304.59375 C 131.179688 306.753906 131.476562 306.910156 133.945312 306.507812 C 136.671875 306.066406 138.75 304.839844 138.75 303.675781 C 138.75 303.324219 137.738281 303.238281 136.5 303.488281 C 134.484375 303.890625 134.25 303.746094 134.25 302.074219 C 134.25 301.046875 134.953125 296.757812 135.8125 292.542969 C 136.671875 288.328125 137.265625 284.78125 137.125 284.664062 C 136.304688 283.960938 127.5625 283.703125 126 284.335938 M 149.523438 285.9375 L 146.746094 288.375 L 147.777344 284.25 L 143.640625 284.25 C 139.273438 284.25 138.539062 284.898438 140.980469 286.597656 C 142.445312 287.613281 142.445312 287.695312 141.058594 294.75 C 138.828125 306.082031 138.824219 306.375 140.925781 306.375 C 142.558594 306.375 142.890625 305.757812 144.46875 299.8125 C 146.558594 291.945312 147.902344 289.175781 150.4375 287.515625 C 152.070312 286.445312 152.488281 286.417969 153.390625 287.320312 C 154.289062 288.226562 154.265625 289.347656 153.230469 295.183594 C 152.566406 298.929688 152.25 302.890625 152.523438 303.984375 C 153.152344 306.488281 156.226562 307.425781 158.894531 305.929688 C 161.09375 304.695312 160.851562 303.363281 158.4375 303.402344 C 156.996094 303.429688 156.753906 303.046875 156.769531 300.777344 C 156.777344 299.320312 157.128906 296.644531 157.546875 294.835938 C 158.75 289.613281 158.625 286.65625 157.128906 285.003906 C 155.171875 282.84375 152.707031 283.144531 149.523438 285.9375 M 182.625 284.371094 C 174.5 288.84375 171.609375 300.582031 177.496094 305.210938 C 180.945312 307.921875 187.277344 306.859375 188.902344 303.292969 C 189.832031 301.246094 189.398438 301.109375 186.75 302.625 C 184.414062 303.960938 181.179688 304.050781 180.164062 302.8125 C 179.742188 302.296875 179.277344 300.875 179.136719 299.648438 C 178.890625 297.546875 179.058594 297.390625 182.183594 296.855469 C 186.386719 296.132812 191.082031 293.054688 191.691406 290.625 C 191.953125 289.59375 191.949219 287.894531 191.683594 286.847656 C 190.945312 283.90625 185.953125 282.539062 182.625 284.371094 M 208.707031 285.070312 C 201.617188 288.578125 198.816406 300.183594 203.933594 304.816406 C 207.050781 307.636719 214.3125 306.898438 216.089844 303.582031 C 217.195312 301.519531 216.5 301.203125 213.855469 302.570312 C 209.214844 304.96875 206.25 303.550781 206.25 298.925781 C 206.25 297.328125 206.601562 296.996094 208.3125 296.984375 C 211.207031 296.960938 216.320312 294.492188 217.773438 292.414062 C 219.570312 289.847656 219.355469 286.085938 217.332031 284.667969 C 215.066406 283.082031 212.480469 283.203125 208.707031 285.070312 M 269.625 284.050781 C 264.507812 285.332031 260.722656 291.238281 260.679688 298.011719 C 260.652344 302.058594 260.84375 302.566406 263.183594 304.65625 C 265.441406 306.679688 266.109375 306.882812 269.390625 306.566406 C 275.765625 305.953125 280.5 299.8125 280.5 292.15625 C 280.5 288.972656 280.140625 287.640625 278.96875 286.46875 C 276.394531 283.894531 273.371094 283.113281 269.625 284.050781 M 292.09375 286.007812 L 289.585938 288.515625 L 290.011719 286.382812 C 290.433594 284.261719 290.414062 284.25 286.636719 284.25 C 282.492188 284.25 280.800781 285.421875 283.84375 286.183594 C 284.894531 286.449219 285.746094 287.046875 285.742188 287.519531 C 285.738281 287.988281 284.925781 292.257812 283.933594 297 C 282.941406 301.742188 282.402344 305.910156 282.734375 306.257812 C 284.023438 307.605469 286.082031 306.320312 286.753906 303.746094 C 289.160156 294.503906 290.53125 290.78125 292.292969 288.6875 L 294.289062 286.316406 L 295.699219 288.058594 C 296.808594 289.429688 297.375 289.628906 298.367188 289.007812 C 300.105469 287.914062 300.304688 286.164062 298.859375 284.714844 C 296.988281 282.847656 294.84375 283.257812 292.09375 286.007812 M 108 284.960938 C 108 285.355469 108.566406 285.992188 109.257812 286.378906 C 110.4375 287.039062 110.4375 287.492188 109.257812 293.488281 C 107.800781 300.914062 107.703125 303.292969 108.777344 305.300781 C 109.730469 307.078125 113 307.214844 115.34375 305.574219 C 117.421875 304.121094 116.925781 303.078125 114.394531 303.5625 C 112.628906 303.898438 112.5 303.722656 112.519531 301.023438 C 112.53125 299.429688 113.195312 295.257812 114 291.75 C 114.804688 288.242188 115.46875 285.121094 115.480469 284.8125 C 115.492188 284.503906 113.8125 284.25 111.75 284.25 C 109.6875 284.25 108 284.570312 108 284.960938 M 251.25 284.960938 C 251.25 285.355469 251.820312 285.992188 252.515625 286.382812 C 253.699219 287.046875 253.691406 287.570312 252.40625 294.570312 C 250.851562 303.0625 251.175781 305.765625 253.832031 306.429688 C 255.8125 306.925781 259.585938 305.421875 260.066406 303.945312 C 260.285156 303.277344 259.71875 303.144531 258.058594 303.476562 C 255.839844 303.917969 255.75 303.835938 255.777344 301.40625 C 255.796875 300.015625 256.441406 295.84375 257.214844 292.136719 C 257.992188 288.433594 258.464844 285.144531 258.269531 284.824219 C 257.75 283.992188 251.25 284.117188 251.25 284.960938 M 300 284.691406 C 300 284.933594 300.667969 285.695312 301.480469 286.378906 C 302.953125 287.617188 302.953125 287.667969 301.5 295.058594 C 300.292969 301.179688 300.199219 302.835938 300.960938 304.425781 C 302.066406 306.734375 303.84375 307.203125 306.808594 305.976562 C 309.574219 304.832031 309.835938 302.761719 307.132812 303.441406 C 305.890625 303.75 305.128906 303.5625 304.867188 302.878906 C 304.652344 302.3125 305.277344 297.890625 306.261719 293.050781 L 308.050781 284.25 L 304.023438 284.25 C 301.8125 284.25 300 284.449219 300 284.691406 M 127.5 286.699219 C 123.609375 288.621094 120.171875 299.511719 122.484375 302.59375 C 123.417969 303.839844 123.871094 303.933594 125.460938 303.210938 C 129.15625 301.527344 133.730469 288.054688 131.160156 286.429688 C 129.832031 285.589844 129.734375 285.59375 127.5 286.699219 M 184.371094 286.257812 C 182.285156 286.808594 178.144531 294.75 179.941406 294.75 C 184.089844 294.75 188.285156 290.121094 186.746094 287.242188 C 186.308594 286.421875 185.875 285.789062 185.785156 285.835938 C 185.699219 285.886719 185.058594 286.074219 184.371094 286.257812 M 210.089844 287.792969 C 207.914062 289.972656 206.363281 293.613281 207.242188 294.492188 C 207.476562 294.722656 208.949219 294.285156 210.515625 293.519531 C 214.007812 291.8125 215.449219 288.628906 213.574219 286.753906 C 212.445312 285.625 212.183594 285.703125 210.089844 287.792969 M 268.734375 288.1875 C 264.34375 293.039062 264.410156 304.5 268.828125 304.5 C 273.339844 304.5 277.84375 292.847656 275.222656 287.949219 C 274.148438 285.941406 270.652344 286.070312 268.734375 288.1875 " fill-opacity="1" fill-rule="evenodd"/></svg>